<svg width="500" height="500" viewBox="0 0 500 500" fill="none" xmlns="http://www.w3.org/2000/svg">
<path fill-rule="evenodd" clip-rule="evenodd" d="M485 0C493.284 0 500 6.71573 500 15V485C500 493.284 493.284 500 485 500H15C6.71573 500 0 493.284 0 485V15C0 6.71573 6.71573 0 15 0H485ZM374.524 442.375C373.274 441.139 370.492 438.549 358.816 440.334C342.279 443.851 344.83 468.5 361.737 468.5H381.188C383.069 468.5 384.666 467.157 384.821 465.283C384.863 464.785 384.798 464.231 384.637 463.758C380.319 451.116 377.535 445.352 374.524 442.375ZM468.5 327.295C468.5 325.822 466.821 324.966 465.606 325.8C425.771 353.171 416.647 374.52 414.864 391.003C413.881 400.091 414.948 409.202 416.743 419.671C418.409 429.388 421.055 441.79 421.488 453.729C421.776 461.665 427.97 468.5 435.91 468.5H453.5C461.784 468.5 468.5 461.784 468.5 453.5V327.295ZM150.473 396.903C148.618 389.076 140.867 384.179 132.984 385.784L39.3252 404.861C34.7715 405.789 31.5 409.794 31.5 414.441C31.5 415.208 31.5902 415.971 31.7686 416.717L40.6123 453.665C42.4737 461.441 50.1042 466.392 57.957 464.889C80.2198 460.626 106.537 455.41 134.653 449.734C138.495 448.959 142.369 448.175 146.271 447.384C154.433 445.728 159.682 437.732 157.903 429.595C155.566 418.905 153.07 407.869 150.473 396.903ZM193.345 331.272C182.881 328.326 173.019 337.127 175.698 347.662C175.996 348.834 176.308 350.025 176.632 351.235C181.29 368.617 185.83 387.438 189.998 405.819C192.767 418.03 208.374 421.884 216.394 412.27L251.896 369.704C258.86 361.355 254.906 348.602 244.44 345.656C227.379 340.855 210.229 336.028 193.345 331.272ZM314.531 365.375C308.839 363.774 302.737 365.665 298.949 370.206L280.478 392.354C271.373 403.269 281.143 419.533 295.053 416.61C315.769 412.257 335.001 408.19 351.692 404.64L352.154 404.542L352.622 404.467C355.379 404.028 358.079 403.714 360.72 403.534C369.526 402.936 377.625 395.876 378.574 387.101C378.796 385.049 377.544 383.105 375.559 382.546C356.851 377.28 336.22 371.476 314.531 365.375ZM40.1748 287.99C35.8267 286.752 31.5 290.016 31.5 294.537V350.949C31.5 360.437 40.1977 367.541 49.4941 365.647L123.22 350.631C131.435 348.958 136.62 340.881 135.311 332.6C134.896 329.975 134.542 327.432 134.245 324.968C133.482 318.625 129.159 313.18 123.011 311.444C90.9659 302.4 62.2838 294.285 40.1748 287.99ZM377.155 296.119C370.824 292.37 362.707 293.767 357.993 299.418L345.548 314.338C338.584 322.687 342.54 335.442 353.006 338.387C362.357 341.018 371.41 343.565 380.083 346.006C386.655 347.856 393.576 344.976 397.6 339.46C399.044 337.479 400.581 335.496 402.213 333.51C408.541 325.809 407.276 313.958 398.7 308.879L377.155 296.119ZM235.442 209.5C228.355 205.784 219.598 208.286 215.544 215.186L173.268 287.139C173.249 287.171 173.225 287.2 173.196 287.225C172.989 287.405 173.064 287.743 173.328 287.817C208.819 297.82 246.535 308.434 282.914 318.669C288.606 320.27 294.707 318.378 298.494 313.837L324.229 282.982C329.956 276.117 328.444 265.797 320.988 260.864L273.585 229.5L235.442 209.5ZM468.5 149.226C468.5 133.137 446.611 128.335 439.877 142.946L391.959 246.916C388.741 253.898 391.323 262.183 397.938 266.101L437.925 289.78C443.059 292.821 449.592 292.613 453.979 288.568C458.268 284.613 462.214 280.165 465.833 275.286C467.622 272.874 468.5 269.92 468.5 266.917V149.226ZM124.983 144.022C118.978 140.29 111.182 141.258 106.271 146.346L35.707 219.464C33.0086 222.26 31.5001 225.994 31.5 229.88V236.354C31.5001 243.047 35.9333 248.931 42.3691 250.768C44.874 251.482 47.4852 252.226 50.1963 252.998C72.9552 259.477 100.767 267.384 134.011 276.766C134.629 276.94 135.277 276.603 135.5 276C138.5 272.5 140.096 269.689 143.441 265.464C144.016 264.739 144.566 263.993 145.034 263.195L183.548 197.646C187.671 190.629 185.446 181.604 178.534 177.308L124.983 144.022ZM422.978 31.5C417.421 31.5 412.32 34.5711 409.721 39.4814L323.394 202.549C319.783 209.37 321.938 217.817 328.374 222.076L340.51 230.105C348.177 235.178 358.561 232.224 362.409 223.875L441.266 52.7783C445.846 42.8398 438.587 31.5001 427.644 31.5H422.978ZM332.056 31.5C326.738 31.5 321.816 34.3161 319.122 38.9014L249.229 157.857C244.888 165.245 247.607 174.761 255.195 178.74L272.905 188.026C280.222 191.862 289.263 189.061 293.128 181.76L361.018 53.5186C366.306 43.5286 359.064 31.5 347.761 31.5H332.056ZM55.5488 95.0078C45.6682 87.534 31.5 94.5818 31.5 106.971V134.193C31.5 147.686 47.9233 154.319 57.293 144.61L72.4795 128.875C78.7269 122.402 77.9103 111.922 70.7354 106.495L55.5488 95.0078ZM198.693 31.5C193.673 31.5 188.989 34.0126 186.192 38.1816C182.783 43.2652 179.063 48.7739 175.172 54.5078C166.098 67.8783 156.034 82.565 146.7 96.1221C141.841 103.18 143.856 112.87 151.134 117.394L196.355 145.502C203.516 149.952 212.935 147.629 217.206 140.36L267.891 54.0986C273.766 44.0991 266.556 31.5001 254.958 31.5H198.693ZM76.6738 31.5C62.2898 31.5 56.1525 49.7853 67.624 58.4629L95.0596 79.2148C101.869 84.3653 111.598 82.8027 116.439 75.7705C125.782 62.201 135.866 47.4869 144.941 34.1143C145.696 33.0029 144.898 31.5 143.555 31.5H76.6738Z" fill="#F04D7E"/>
</svg>
